# xmcd
#
# Track frame offsets:
#	150
#	17918
#	34522
#	53559
#	73691
#	92199
#	112954
#	131058
#	153259
#	172733
#	195281
#	211264
#	231055
#	251507
#	264002
#	287165
#	301758
#	319985
#
# Disc length: 4463 seconds
#
# Revision: 1
# Processed by: cddbd v1.5.1PL0 Copyright (c) Steve Scherf et al.
# Submitted via: audiograbber 1.82.01
#
DISCID=e5116d12
DTITLE=makri - tizinterga
DYEAR=1900
DGENRE=
TTITLE0=makri
TTITLE1=patez
TTITLE2=biza
TTITLE3=zembra
TTITLE4=patrick
TTITLE5=davoussad
TTITLE6=briki
TTITLE7=tahar voudhguelzimte
TTITLE8=boubati
TTITLE9=akjoune
TTITLE10=lala ghriva
TTITLE11=mouh douh
TTITLE12=layachi
TTITLE13=mechri
TTITLE14=cheaayeb
TTITLE15=ber
TTITLE16=kanouni
TTITLE17=zouada
EXTD=
EXTT0=patez
EXTT1=
EXTT2=
EXTT3=
EXTT4=
EXTT5=
EXTT6=
EXTT7=
EXTT8=
EXTT9=
EXTT10=
EXTT11=
EXTT12=
EXTT13=
EXTT14=
EXTT15=
EXTT16=
EXTT17=
PLAYORDER=
